<svg width="576" height="512" xmlns="http://www.w3.org/2000/svg" fill="indigo">
 <!--!Font Awesome Free 6.5.1 by @fontawesome - https://fontawesome.com License - https://fontawesome.com/license/free Copyright 2024 Fonticons, Inc.-->

 <g>
  <title>Layer 1</title>
  <path transform="rotate(-90, 292.375, 256)" d="m462.64049,198.25c29.96953,0 82.1095,26.16797 82.1095,57.75c0,32.48438 -52.13997,57.75 -82.1095,57.75l-102.17682,0l-88.06836,158.72227c-4.99492,9.02344 -14.28372,14.52773 -24.3612,14.52773l-49.24818,0c-9.2888,0 -16.03633,-9.20391 -13.49505,-18.40781l42.9388,-154.84219l-90.08385,0l-37.85625,51.975c-2.62891,3.60938 -6.83516,5.775 -11.21667,5.775l-36.80469,0c-6.83516,0 -12.26823,-5.68477 -12.26823,-12.63281c0,-1.17305 0.17526,-2.34609 0.43815,-3.51914l27.60351,-99.34805l-27.60351,-99.34805c-0.35052,-1.17305 -0.43815,-2.34609 -0.43815,-3.51914c0,-7.03828 5.5207,-12.63281 12.26823,-12.63281l36.80469,0c4.38151,0 8.58776,2.16562 11.21667,5.775l37.85625,51.975l90.17148,0l-42.9388,-154.84219c-2.62891,-9.20391 4.11862,-18.40781 13.40742,-18.40781l49.24818,0c10.07747,0 19.36628,5.59453 24.3612,14.52773l88.06836,158.72227l102.17682,0z" id="svg_1"/>
 </g>
</svg>